# xmcd
#
# Track frame offsets: 
#        150
#        10617
#        25725
#        37487
#        50312
#        59255
#        71417
#        82750
#        95745
#        103297
#        115627
#        126405
#        135455
#        146780
#        156142
#        166055
#        179040
#        191252
#        201522
#        211015
#        221177
#        235047
#        243827
#        254260
#        265000
#
# Disc length: 3683 seconds
#
# Revision: 2
# Processed by: cddbd v1.5.2PL0 Copyright (c) Steve Scherf et al.
# Submitted via: ExactAudioCopyFreeDBPlugin 1.0
#
DISCID=630e6119
DTITLE=Roy Perkins - Roy "Boogie Boy" Perkins
DYEAR=1900
DGENRE=
TTITLE0=Drop Top
TTITLE1=That's What The Mailman Had To Say
TTITLE2=Hey Lawdy Mama
TTITLE3=Just Another Lie
TTITLE4=Tell Me You Love Me (And Give Me The Reason Why)
TTITLE5=Am I The One
TTITLE6=Ba Da
TTITLE7=Please Be True
TTITLE8=Cooking Catfish
TTITLE9=Tired Of Hanging Around
TTITLE10=Drop Top (Alt.)
TTITLE11=Ginning
TTITLE12=The Girl Next Door
TTITLE13=I Love My Baby
TTITLE14=Red Beans and Rice
TTITLE15=Hey Lawdy Mama (Take1)
TTITLE16=It's All Over
TTITLE17=These Blues Are Here To Stay
TTITLE18=Anything Your Heart Desires
TTITLE19=Hippy Ti Yo
TTITLE20=This Time (Take1)
TTITLE21=Like Twist
TTITLE22=Loneliness
TTITLE23=True Love
TTITLE24=Sweet Lilly
EXTD=
EXTT0=
EXTT1=
EXTT2=
EXTT3=
EXTT4=
EXTT5=
EXTT6=
EXTT7=
EXTT8=
EXTT9=
EXTT10=
EXTT11=
EXTT12=
EXTT13=
EXTT14=
EXTT15=
EXTT16=
EXTT17=
EXTT18=
EXTT19=
EXTT20=
EXTT21=
EXTT22=
EXTT23=
EXTT24=
PLAYORDER=
